#!OML:ASF H:\Male1\Project 1\Capture day 1\Session 1\Male1.ASF
:FULLY-SPECIFIED
:DEGREES
129
root 5.97167 15.1405 1.76667 176.111 6.8545 180.123
lowerback 0.295132 0.0244487 -3.93486
upperback -4.63448 0.125198 -3.33938
thorax -4.95604 0.29509 -1.27519
lowerneck -7.16791 6.22223 11.9365
upperneck 2.50757 9.38452 -21.0629
head 3.574 4.53516 -7.95432
rclavicle 3.18055e-015 2.8625e-014
rhumerus -29.4533 -21.5713 0.347213
rradius 104.318
rwrist -16.1502
rhand -44.1483 33.7546
rfingers 7.12502
rthumb -16.964 4.47544
lclavicle 3.18055e-015 2.8625e-014
lhumerus -35.6731 23.5183 -3.64245
lradius 127.353
lwrist -8.08545
lhand -63.5732 -58.2981
lfingers 7.12502
lthumb -35.5465 -31.8714
rfemur 4.66348 19.7297 25.5101
rtibia 25.893
rfoot -33.406 -28.2509
rtoes -24.7739
lfemur 8.5158 -21.8755 -25.6274
ltibia 22.8051
lfoot -38.132 32.5217
ltoes 8.35418
130
root 5.9773 15.1378 1.7443 176.036 6.69426 180.079
lowerback 0.162603 0.00173936 -3.99512
upperback -4.59179 0.10711 -3.41721
thorax -4.83567 0.287936 -1.31964
lowerneck -7.03468 6.1893 12.2127
upperneck 2.4127 9.37705 -21.487
head 3.5609 4.54606 -8.1495
rclavicle -1.19271e-014 0
rhumerus -28.6685 -21.9515 1.04256
rradius 101.862
rwrist -17.6735
rhand -42.3711 34.2802
rfingers 7.12502
rthumb -15.2527 4.86257
lclavicle -1.19271e-014 0
lhumerus -34.5153 23.7371 -4.66567
lradius 123.924
lwrist -7.63039
lhand -64.0013 -55.9129
lfingers 7.12502
lthumb -35.9522 -29.5846
rfemur 4.93554 19.953 25.6391
rtibia 25.8631
rfoot -34.1184 -28.0778
rtoes -23.0213
lfemur 8.64967 -21.9703 -25.7311
ltibia 22.8832
lfoot -37.9921 32.645
ltoes 7.55451
131
root 5.96881 15.1348 1.72577 175.934 6.58183 180.511
lowerback 0.196677 -0.0133524 -3.40885
upperback -4.54247 0.0881423 -3.37237
thorax -4.80077 0.247934 -1.59816
lowerneck -6.85682 6.17411 12.5399
upperneck 2.2705 9.42497 -22.1039
head 3.55072 4.59268 -8.41593
rclavicle -9.14409e-015 2.38542e-014
rhumerus -27.6981 -22.0558 1.47218
rradius 98.9691
rwrist -17.6266
rhand -42.2749 34.7112
rfingers 7.12502
rthumb -15.1599 5.28652
lclavicle -9.14409e-015 2.38542e-014
lhumerus -33.4592 23.6963 -5.43516
lradius 120.185
lwrist -7.43334
lhand -63.9652 -55.6745
lfingers 7.12502
lthumb -35.9179 -29.3379
rfemur 5.21427 19.6409 26.1055
rtibia 25.7744
rfoot -33.9036 -28.1594
rtoes -23.6278
lfemur 8.86899 -22.0426 -25.3956
ltibia 23.0107
lfoot -38.1742 32.4668
ltoes 7.59349
132
root 5.96468 15.1309 1.70794 175.865 6.56786 180.75
lowerback 0.195301 0.00426024 -3.06331
upperback -4.5623 0.116109 -3.35024
thorax -4.81936 0.24628 -1.7696
lowerneck -6.79118 6.13948 12.5833
upperneck 2.40379 9.46378 -22.3928
head 3.60414 4.61747 -8.51996
rclavicle 1.63003e-014 -2.22639e-014
rhumerus -26.6419 -21.6688 1.66457
rradius 95.6608
rwrist -15.7779
rhand -44.4417 33.8864
rfingers 7.12502
rthumb -17.2463 4.63165
lclavicle 1.63003e-014 -2.22639e-014
lhumerus -32.3712 23.3183 -6.08887
lradius 116.056
lwrist -7.46685
lhand -65.2041 -41.2462
lfingers 7.12502
lthumb -37.0907 -15.2052
rfemur 5.46165 19.4977 26.3924
rtibia 25.6323
rfoot -33.3494 -28.5752
rtoes -25.0114
lfemur 8.9821 -22.0012 -25.2177
ltibia 23.1927
lfoot -38.427 32.2632
ltoes 7.67178
133
root 5.96654 15.1263 1.69176 175.846 6.57823 180.79
lowerback 0.140909 0.0113134 -3.05182
upperback -4.61719 0.131117 -3.33275
thorax -4.84569 0.255696 -1.75907
lowerneck -6.95122 6.1539 12.3345
upperneck 2.79685 9.57496 -22.3346
head 3.74955 4.65303 -8.44061
rclavicle 1.74931e-014 -7.95139e-014
rhumerus -25.2868 -21.7016 1.96267
rradius 92.6612
rwrist -15.766
rhand -44.2141 32.9654
rfingers 7.12502
rthumb -17.0273 3.69169
lclavicle 1.74931e-014 -7.95139e-014
lhumerus -31.0891 22.9113 -6.75605
lradius 111.858
lwrist -7.34704
lhand -64.7102 -56.6952
lfingers 7.12502
lthumb -36.6235 -30.5343
rfemur 5.62857 19.5788 26.5068
rtibia 25.5347
rfoot -33.2594 -28.7327
rtoes -25.0116
lfemur 9.01674 -21.9397 -25.1941
ltibia 23.3271
lfoot -38.7021 32.0219
ltoes 8.13522
134
root 5.96899 15.1232 1.67802 175.831 6.51317 180.755
lowerback 0.0274209 -0.0158872 -3.15945
upperback -4.61051 0.101161 -3.31694
thorax -4.77449 0.246016 -1.68
lowerneck -7.09545 6.17949 12.0373
upperneck 3.11783 9.68185 -22.1967
head 3.86338 4.68839 -8.32646
rclavicle 1.98785e-015 2.06736e-014
rhumerus -23.9454 -21.8765 2.22736
rradius 89.6069
rwrist -15.5796
rhand -44.1366 32.0853
rfingers 7.12502
rthumb -16.9527 2.80513
lclavicle 1.98785e-015 2.06736e-014
lhumerus -29.5629 22.7559 -7.33936
lradius 107.661
lwrist -7.13872
lhand -65.0396 -43.7443
lfingers 7.12502
lthumb -36.9351 -17.6631
rfemur 5.71978 19.5844 26.5004
rtibia 25.5356
rfoot -33.6021 -28.5378
rtoes -24.1426
lfemur 9.07324 -21.9532 -25.2462
ltibia 23.3602
lfoot -38.8529 31.8645
ltoes 8.54476
135
root 5.97164 15.1212 1.6666 175.78 6.38097 180.61
lowerback -0.00124797 -0.0396104 -3.35258
upperback -4.60894 0.0711036 -3.35093
thorax -4.7573 0.240685 -1.60607
lowerneck -6.78112 6.10654 12.2522
upperneck 3.00339 9.64753 -22.6278
head 3.8059 4.70065 -8.52389
rclavicle 1.07344e-014 -4.45278e-014
rhumerus -23.3397 -21.7487 2.63729
rradius 86.4875
rwrist -15.2289
rhand -44.4161 32.21
rfingers 7.12502
rthumb -17.2217 2.95311
lclavicle 1.07344e-014 -4.45278e-014
lhumerus -27.7256 22.7907 -7.76732
lradius 103.342
lwrist -6.89015
lhand -64.8611 -40.9151
lfingers 7.12502
lthumb -36.7663 -14.7906
rfemur 5.79093 19.4802 26.3577
rtibia 25.5784
rfoot -33.8108 -28.4584
rtoes -23.8958
lfemur 9.12405 -21.8649 -25.371
ltibia 23.3462
lfoot -38.6747 31.8654
ltoes 8.15293
136
root 5.97159 15.1191 1.65801 175.747 6.22722 180.553
lowerback -0.0177669 -0.0436792 -3.39211
upperback -4.58812 0.0678295 -3.39271
thorax -4.72624 0.240587 -1.62683
lowerneck -6.40312 6.29256 12.1872
upperneck 2.83786 9.9224 -22.5628
head 3.7342 4.86681 -8.47339
rclavicle 2.3059e-014 -5.40694e-014
rhumerus -22.3139 -21.8174 3.0154
rradius 83.4232
rwrist -14.7937
rhand -44.3737 32.3632
rfingers 7.12502
rthumb -17.1809 3.10279
lclavicle 2.3059e-014 -5.40694e-014
lhumerus -26.1054 22.6113 -8.26557
lradius 98.9805
lwrist -6.35373
lhand -64.7539 -43.014
lfingers 7.12502
lthumb -36.6648 -16.8636
rfemur 5.83589 19.2634 26.2894
rtibia 25.6148
rfoot -33.7015 -28.6218
rtoes -24.5756
lfemur 9.12215 -21.6719 -25.3519
ltibia 23.3229
lfoot -38.234 31.9798
ltoes 7.09717
137
root 5.97059 15.1194 1.65143 175.756 6.0969 180.703
lowerback -0.0337286 -0.0123226 -3.18946
upperback -4.55986 0.11267 -3.40007
thorax -4.68661 0.252392 -1.74867
lowerneck -6.61257 6.0576 12.0892
upperneck 3.21837 9.75857 -22.989
head 3.87217 4.7716 -8.6125
rclavicle -1.98785e-015 -9.54166e-015
rhumerus -21.4139 -21.8673 3.44715
rradius 80.4154
rwrist -14.5119
rhand -44.992 28.3621
rfingers 7.12502
rthumb -17.776 -0.845471
lclavicle -1.98785e-015 -9.54166e-015
lhumerus -24.497 22.5125 -8.63408
lradius 94.7023
lwrist -6.05488
lhand -65.0364 -52.1558
lfingers 7.12502
lthumb -36.9321 -26.0738
rfemur 5.91014 19.1128 26.4629
rtibia 25.6111
rfoot -33.7214 -28.6869
rtoes -24.7539
lfemur 9.11357 -21.6297 -25.1609
ltibia 23.3327
lfoot -37.929 32.1133
ltoes 6.18868
138
root 5.97042 15.1204 1.64484 175.786 6.01957 180.908
lowerback -0.0595289 0.0169759 -2.97975
upperback -4.522 0.153223 -3.362
thorax -4.6311 0.261021 -1.82671
lowerneck -6.56381 6.06074 12.2205
upperneck 3.33242 9.86684 -23.3782
head 3.94742 4.8331 -8.76086
rclavicle 9.93923e-015 -2.54444e-014
rhumerus -20.3907 -21.9459 3.80712
rradius 77.3899
rwrist -14.2599
rhand -44.8938 30.4176
rfingers 7.12502
rthumb -17.6815 1.20156
lclavicle 9.93923e-015 -2.54444e-014
lhumerus -23.019 22.5139 -9.01772
lradius 90.4962
lwrist -6.01921
lhand -65.6332 -34.6848
lfingers 7.12502
lthumb -37.4964 -8.75036
rfemur 5.96908 18.9206 26.6554
rtibia 25.5586
rfoot -33.6158 -28.6637
rtoes -24.94
lfemur 9.11498 -21.7428 -24.972
ltibia 23.3941
lfoot -37.9109 32.1646
ltoes 5.93966
